<svg width="344" height="344" xmlns="http://www.w3.org/2000/svg">

 <g>
  <title>background</title>
  <rect fill="none" id="canvas_background" height="346" width="346" y="-1" x="-1"/>
 </g>
 <g>
  <title>Layer 1</title>
  <path id="svg_1" fill="#ed1c24" d="m3.716,170.642c0,-92.285 74.81,-167.095 167.095,-167.095c92.284,0 167.094,74.81 167.094,167.095s-74.81,167.095 -167.094,167.095c-92.286,0 -167.095,-74.81 -167.095,-167.095z"/>
  <path id="svg_2" d="m3.716,170.642c0,-92.285 74.81,-167.095 167.095,-167.095c92.284,0 167.094,74.81 167.094,167.095s-74.81,167.095 -167.094,167.095c-92.286,0 -167.095,-74.81 -167.095,-167.095z" stroke="#ed1c24" fill="none" stroke-miterlimit="3.864"/>
  <path id="svg_3" fill="#fff" d="m37.395,170.642c0,-73.684 59.731,-133.416 133.416,-133.416c73.684,0 133.415,59.732 133.415,133.416c0,73.685 -59.731,133.416 -133.415,133.416c-73.685,0 -133.416,-59.731 -133.416,-133.416z"/>
  <path id="svg_4" d="m37.395,170.642c0,-73.684 59.731,-133.416 133.416,-133.416c73.684,0 133.415,59.732 133.415,133.416c0,73.685 -59.731,133.416 -133.415,133.416c-73.685,0 -133.416,-59.731 -133.416,-133.416z" stroke="#fff" fill="none" stroke-miterlimit="3.864"/>
  <path id="svg_5" fill="#231f20" d="m171.128,231.504l-48.885,-4.512c-0.51,-0.033 -2.593,0.791 -2.941,1.164l-33.058,35.367c-14.806,-13.417 -35.213,-36.608 -36.492,-56.587l14.386,-0.255c8.634,-0.152 -0.377,-21.03 -6.303,-21.705l-3.984,-12.25c0.463,-0.704 1.287,-1.864 1.427,-2.786c1.111,-7.283 4.893,-22.027 10.754,-26.612c7.327,-5.732 22.384,-8.16 34.57,5.45c1.355,2.495 2.64,5.883 4.598,8.414c-0.25,0.12 1.997,0.267 1.79,0.447l-32.628,-0.65c-4.926,-0.085 -5.054,7.306 -0.127,7.391l28.432,0.62l-4.382,30.02c-0.918,1.752 -1.355,9.286 -1.355,9.286c-2.345,0.505 -5.28,1.527 -7.641,1.527c-4.928,0 -4.928,7.393 0,7.393c3.44,0 14.07,-1.788 14.585,-5.32l0.87,-5.96l37.69,-2.452c1.593,-0.104 2.62,-0.948 3.112,-2.031c1.224,2.527 2.316,4.793 2.822,5.928c1.399,3.14 8.934,12.956 15.746,19.015c4.08,3.63 5.908,6.407 7.014,9.098zm-65.293,-37.036l4.283,-29.339l7.752,0.134c4.927,0.085 5.055,-7.306 0.128,-7.391l-2.475,-0.043c-0.982,-1.768 -2.445,-3.464 -3.999,-4.56c-0.094,-0.078 -0.325,-0.3 -0.602,-0.832a495.962,495.962 0 0 0 -4.03,-7.565c-8.443,-15.484 -32.924,-17.137 -45.414,-7.366c-7.742,6.056 -11.722,20.98 -13.371,30.502c-4.842,7.36 0.815,23.392 7.205,24.12l3.163,7.26c-6.062,0.107 -15.846,-1.63 -16.128,3.722c-1.284,24.328 24.169,53.655 41.776,68.392c1.396,1.168 3.828,1.02 5.072,-0.31l34.312,-36.71l49.588,2.965c13.478,7.24 42.927,-5.613 48.75,-9.728l3.302,-2.884c11.369,-13.54 14.793,-38.79 16.304,-46.05c0,0 3.421,-5.565 4.514,-9.503c1.093,-3.938 12.689,-14.449 13.568,-15.857c0.88,-1.408 13.777,-17.197 15.631,-20.847c1.855,-3.65 6.538,-8.405 8.988,-16.399c0,0 -4.19,-12.247 -12.22,-5.06c-8.028,7.188 -9.164,10.675 -12.117,14.344c-2.953,3.67 -8.73,12.363 -13.468,15.574c-4.739,3.21 -6.538,8.404 -12.234,7.337c-5.695,-1.068 -1.214,-6.987 2.451,-14.739c3.666,-7.751 10.406,-14.992 11.487,-20.022c1.08,-5.03 9.927,-17.132 10.093,-19.245c0.166,-2.112 3.715,-10.126 3.967,-11.336c0.251,-1.21 2.29,-8.707 -3.958,-11.724c-6.247,-3.018 -11.944,2.66 -12.57,7.644c-0.627,4.985 -5.47,9.027 -7.393,16.786c-1.922,7.758 -6.796,12.44 -7.576,13.886c-0.78,1.446 -5.353,9.289 -5.9,11.258c-0.546,1.969 -3.009,8.87 -7.115,11.015c-4.106,2.145 -4.29,-0.754 -3.614,-8.113c0.676,-7.36 3.37,-6.993 4.931,-16.629c1.56,-9.636 2.869,-18.062 3.68,-20.149c0.81,-2.086 3.603,-6.469 4.703,-13.233s3.567,-9.747 3.764,-12.5c0.197,-2.755 -2.092,-7.538 -6.922,-9.148c-4.83,-1.61 -12.22,1.685 -12.571,7.644c-0.35,5.96 -4.797,21.902 -5.122,23.302c-0.326,1.4 -2.45,7.994 -2.819,8.942c-0.368,0.949 -3.684,9.485 -3.5,12.383c0.184,2.899 -2.163,16.807 -3.047,19.083c-0.884,2.276 -2.77,6.567 -7.52,1.941c0,0 -3.964,-2.153 -4.042,-12.627c-0.078,-10.474 -0.483,-12.803 -1.692,-15.872c-1.208,-3.068 -1.545,-9.505 -1.796,-15.04c-0.25,-5.535 1.161,-8.047 -1.63,-17.154s-1.588,-9.957 -7.474,-11.097c-5.886,-1.14 -10.362,8.699 -10.35,9.791c0.012,1.093 -1.407,13.175 1.206,23.303s-0.72,13.653 0.746,19.43c1.466,5.777 4.25,17.71 4.005,22.84c-0.246,5.128 -1.365,13.626 -2.14,18.99c-0.773,5.365 -5.353,16.034 -14.32,10.464c-8.966,-5.57 -11.255,-10.352 -14.317,-16.515c-3.061,-6.164 -5.123,-14.342 -18.232,-21.044c0,0 -17.118,-2.562 -11.945,9.405c0,0 4.516,10.847 8.738,15.71c0,0 2.65,6.66 4.798,8.996c2.148,2.336 8.285,9.01 10.628,15.337c2.344,6.326 7.848,14.067 8.59,16.089c0.29,0.79 1.365,3.07 2.65,5.743a4.296,4.296 0 0 0 -1.03,-0.052l-36.12,2.35l0,0.001z"/>
  <path id="svg_6" fill-rule="evenodd" fill="#231f20" d="m91.264,191.093c0,-4.673 -2.519,-8.462 -5.626,-8.462s-5.626,3.789 -5.626,8.462c0,4.674 2.519,8.462 5.626,8.462s5.626,-3.788 5.626,-8.462z"/>
  <path id="svg_7" d="m91.264,191.093c0,-4.673 -2.519,-8.462 -5.626,-8.462s-5.626,3.789 -5.626,8.462c0,4.674 2.519,8.462 5.626,8.462s5.626,-3.788 5.626,-8.462z" stroke="#231f20" fill="none" stroke-miterlimit="3.864" stroke-width="0.314"/>
  <path id="svg_8" fill-rule="evenodd" fill="#fff" d="m87.903,190.996c0,-2.857 -0.918,-5.173 -2.05,-5.173c-1.132,0 -2.05,2.316 -2.05,5.173c0,2.858 0.918,5.174 2.05,5.174c1.132,0 2.05,-2.316 2.05,-5.174z"/>
  <path id="svg_9" d="m87.903,190.996c0,-2.857 -0.918,-5.173 -2.05,-5.173c-1.132,0 -2.05,2.316 -2.05,5.173c0,2.858 0.918,5.174 2.05,5.174c1.132,0 2.05,-2.316 2.05,-5.174z" stroke="#fff" fill="none" stroke-miterlimit="3.864" stroke-width="0.921"/>
  <path id="svg_10" fill-rule="evenodd" fill="#fff" d="m155.138,190.297c0.475,-0.686 0.98,-1.196 1.517,-1.53a3.3,3.3 0 0 1 1.78,-0.501c0.599,0 1.107,0.137 1.525,0.411c0.419,0.274 0.762,0.694 1.03,1.26c0.444,-0.548 0.923,-0.964 1.438,-1.247a3.291,3.291 0 0 1 1.606,-0.424c1.143,0 1.953,0.345 2.43,1.037c0.478,0.691 0.717,1.887 0.717,3.587l0,4.767c0,0.508 0.059,0.842 0.177,1.001c0.119,0.16 0.362,0.239 0.73,0.239l0.224,0l0,2.327l-5.715,0l0,-2.327c0.33,-0.017 0.548,-0.101 0.65,-0.252c0.104,-0.15 0.155,-0.48 0.155,-0.988l0,-4.508c0,-0.758 -0.076,-1.299 -0.229,-1.622c-0.152,-0.323 -0.41,-0.484 -0.77,-0.484c-0.412,0 -0.716,0.23 -0.912,0.69c-0.196,0.462 -0.294,1.183 -0.294,2.165l0,3.759c0,0.517 0.042,0.853 0.126,1.008c0.085,0.154 0.249,0.232 0.492,0.232l0.206,0l0,2.327l-5.389,0l0,-2.327l0.188,0c0.243,0 0.407,-0.082 0.491,-0.246c0.085,-0.163 0.127,-0.495 0.127,-0.994l0,-4.508c0,-0.758 -0.078,-1.299 -0.234,-1.622c-0.156,-0.323 -0.417,-0.484 -0.785,-0.484c-0.405,0 -0.704,0.232 -0.897,0.697c-0.193,0.465 -0.29,1.202 -0.29,2.21l0,3.707c0,0.49 0.054,0.82 0.162,0.988c0.109,0.168 0.308,0.252 0.599,0.252l0.083,0l0,2.327l-5.85,0l0,-2.327l0.328,0c0.369,0 0.61,-0.08 0.727,-0.239c0.115,-0.16 0.173,-0.493 0.173,-1.001l0,-5.348c0,-0.517 -0.058,-0.853 -0.173,-1.007c-0.116,-0.155 -0.358,-0.233 -0.727,-0.233l-0.327,0l0,-2.327l4.911,0l0,1.555zm21.652,5.135c-0.225,0.172 -0.524,0.382 -0.898,0.631c-0.847,0.567 -1.27,1.108 -1.27,1.624c0,0.36 0.093,0.657 0.28,0.889a0.883,0.883 0 0 0 0.72,0.347c0.36,0 0.649,-0.16 0.863,-0.484c0.215,-0.322 0.323,-0.759 0.323,-1.309l0,-0.09l-0.019,-1.608l0.001,0zm0.402,4.473a3.401,3.401 0 0 1 -1.348,1.31c-0.568,0.306 -1.22,0.459 -1.957,0.459c-0.955,0 -1.691,-0.306 -2.21,-0.917c-0.517,-0.612 -0.776,-1.482 -0.776,-2.61c0,-1.103 0.23,-1.93 0.692,-2.48c0.462,-0.552 1.348,-0.982 2.659,-1.292c1.092,-0.258 1.78,-0.542 2.064,-0.852c0.284,-0.31 0.426,-0.788 0.426,-1.433c0,-0.637 -0.159,-1.143 -0.477,-1.517c-0.318,-0.375 -0.75,-0.562 -1.3,-0.562c-0.18,0 -0.364,0.037 -0.551,0.11a2.59,2.59 0 0 0 -0.58,0.33c0.336,0.137 0.586,0.346 0.751,0.626c0.165,0.28 0.248,0.64 0.248,1.08c0,0.542 -0.154,0.981 -0.46,1.317c-0.305,0.336 -0.71,0.504 -1.216,0.504c-0.6,0 -1.061,-0.194 -1.386,-0.582c-0.324,-0.387 -0.487,-0.934 -0.487,-1.64c0,-1.086 0.406,-1.934 1.218,-2.546c0.812,-0.612 1.945,-0.918 3.4,-0.918c0.799,0 1.512,0.086 2.14,0.259c0.627,0.172 1.104,0.409 1.428,0.71c0.393,0.362 0.668,0.79 0.824,1.286c0.156,0.495 0.234,1.277 0.234,2.345l0,4.82c0,0.327 0.027,0.54 0.08,0.64c0.053,0.099 0.155,0.148 0.304,0.148c0.15,0 0.255,-0.052 0.314,-0.155c0.06,-0.103 0.089,-0.314 0.089,-0.633l0,-1.513l1.266,0l0,1.642c0,1.368 -0.225,2.349 -0.675,2.942c-0.45,0.594 -1.184,0.89 -2.202,0.89c-0.575,0 -1.067,-0.143 -1.476,-0.432c-0.41,-0.288 -0.755,-0.734 -1.036,-1.336zm15.533,-0.503c-0.412,0.75 -0.902,1.32 -1.47,1.71a3.244,3.244 0 0 1 -1.883,0.588c-1.155,0 -1.971,-0.344 -2.449,-1.033c-0.477,-0.69 -0.716,-1.89 -0.716,-3.604l0,-4.754c0,-0.517 -0.06,-0.853 -0.178,-1.007c-0.119,-0.155 -0.363,-0.233 -0.731,-0.233l-0.3,0l0,-2.327l4.987,0l0,8.062c0,0.724 0.101,1.263 0.304,1.616c0.203,0.353 0.51,0.53 0.92,0.53c0.437,0 0.784,-0.228 1.039,-0.685c0.256,-0.457 0.383,-1.077 0.383,-1.861l0,-4.095c0,-0.525 -0.057,-0.863 -0.173,-1.014c-0.116,-0.15 -0.355,-0.226 -0.717,-0.226l-0.375,0l0,-2.327l5.044,0l0,8.915c0,0.508 0.06,0.842 0.178,1.001c0.119,0.16 0.36,0.239 0.723,0.239l0.403,0l0,2.327l-4.989,0l0,-1.822zm9.195,2.002l-1.344,0l0,-4.57l1.688,0c0.2,0.811 0.518,1.42 0.952,1.825c0.435,0.405 0.987,0.608 1.656,0.608c0.444,0 0.766,-0.084 0.966,-0.252c0.2,-0.168 0.3,-0.433 0.3,-0.796c0,-0.483 -0.5,-0.927 -1.5,-1.332c-0.339,-0.138 -0.604,-0.25 -0.798,-0.337c-1.448,-0.636 -2.386,-1.234 -2.814,-1.793c-0.427,-0.56 -0.641,-1.32 -0.641,-2.284c0,-1.282 0.385,-2.304 1.157,-3.065c0.771,-0.761 1.82,-1.142 3.144,-1.142c0.593,0 1.162,0.081 1.705,0.244a6.494,6.494 0 0 1 1.593,0.732l0.272,-0.732l1.411,0l0,3.934l-1.496,0c-0.262,-0.622 -0.615,-1.1 -1.06,-1.432a2.425,2.425 0 0 0 -1.49,-0.498c-0.381,0 -0.681,0.084 -0.9,0.252a0.826,0.826 0 0 0 -0.328,0.693c0,0.535 0.478,1.001 1.435,1.398c0.244,0.104 0.435,0.185 0.572,0.246c0.12,0.051 0.285,0.12 0.497,0.206c1.03,0.44 1.77,0.865 2.219,1.278c0.318,0.293 0.563,0.684 0.735,1.175c0.172,0.49 0.257,1.041 0.257,1.652c0,1.325 -0.374,2.367 -1.124,3.124c-0.75,0.757 -1.781,1.136 -3.093,1.136c-0.7,0 -1.36,-0.108 -1.982,-0.322a5.196,5.196 0 0 1 -1.645,-0.914l-0.345,0.966l0.001,0zm21.393,-4.517c-0.219,1.617 -0.725,2.824 -1.517,3.62c-0.793,0.795 -1.886,1.193 -3.278,1.193c-1.592,0 -2.85,-0.602 -3.773,-1.807c-0.924,-1.204 -1.386,-2.839 -1.386,-4.903c0,-2.048 0.463,-3.68 1.39,-4.898c0.927,-1.218 2.171,-1.826 3.732,-1.826c1.542,0 2.726,0.604 3.553,1.812c0.827,1.209 1.241,2.94 1.241,5.193l0,0.453l-6.023,0l0,0.258c0,1.052 0.16,1.858 0.478,2.418c0.318,0.56 0.77,0.84 1.358,0.84c0.499,0 0.908,-0.202 1.226,-0.607c0.319,-0.405 0.531,-0.987 0.637,-1.746l2.362,0zm-6.061,-3.49l2.781,0l0,-0.194c0,-0.827 -0.122,-1.464 -0.365,-1.912c-0.244,-0.448 -0.59,-0.671 -1.04,-0.671c-0.437,0 -0.775,0.24 -1.015,0.723c-0.24,0.482 -0.361,1.166 -0.361,2.053l0,0.001zm13.878,-3.431c0.324,-0.562 0.682,-0.982 1.075,-1.259a2.152,2.152 0 0 1 1.262,-0.415c0.686,0 1.235,0.278 1.646,0.834c0.412,0.556 0.617,1.299 0.617,2.229c0,0.801 -0.164,1.443 -0.492,1.926c-0.328,0.482 -0.76,0.724 -1.297,0.724c-0.425,0 -0.78,-0.186 -1.064,-0.555c-0.284,-0.37 -0.426,-0.83 -0.426,-1.381c0,-0.379 0.069,-0.71 0.207,-0.994c0.139,-0.284 0.349,-0.525 0.632,-0.723a1.525,1.525 0 0 0 -0.215,-0.057a1.074,1.074 0 0 0 -0.196,-0.02c-0.512,0 -0.915,0.33 -1.211,0.988c-0.297,0.658 -0.444,1.563 -0.444,2.715l0,3.68c0,0.507 0.058,0.84 0.176,1c0.118,0.16 0.36,0.239 0.725,0.239l0.613,0l0,2.327l-6.52,0l0,-2.327l0.328,0c0.368,0 0.61,-0.08 0.726,-0.239c0.115,-0.16 0.173,-0.493 0.173,-1l0,-5.348c0,-0.517 -0.058,-0.853 -0.173,-1.008c-0.116,-0.155 -0.358,-0.233 -0.726,-0.233l-0.328,0l0,-2.327l4.911,0l0,1.224l0.001,0zm-77.008,-8.638c0,0.343 0.215,0.591 0.646,0.746c0.431,0.154 1.125,0.231 2.08,0.231c0.931,0 1.598,-0.079 2,-0.237c0.404,-0.16 0.605,-0.414 0.605,-0.766c0,-0.326 -0.186,-0.558 -0.557,-0.695c-0.372,-0.137 -1.048,-0.206 -2.029,-0.206c-1.062,0 -1.785,0.069 -2.17,0.206c-0.383,0.137 -0.575,0.378 -0.575,0.72l0,0.001zm2.151,-7.38c0.286,0 0.495,-0.258 0.625,-0.774c0.131,-0.516 0.196,-1.368 0.196,-2.555c0,-1.127 -0.063,-1.934 -0.191,-2.42s-0.331,-0.73 -0.611,-0.73c-0.336,0 -0.574,0.25 -0.714,0.75c-0.14,0.498 -0.21,1.367 -0.21,2.606c0,1.102 0.072,1.898 0.215,2.388c0.143,0.49 0.373,0.736 0.69,0.736l0,-0.001zm-3.36,0.156a4.262,4.262 0 0 1 -0.818,-1.498a6.373,6.373 0 0 1 -0.275,-1.937c0,-1.593 0.404,-2.829 1.213,-3.707c0.808,-0.878 1.946,-1.317 3.413,-1.317c0.475,0 0.937,0.073 1.386,0.22c0.45,0.147 0.94,0.389 1.47,0.726c0.32,-0.329 0.642,-0.569 0.97,-0.72a2.506,2.506 0 0 1 1.062,-0.226c0.705,0 1.277,0.237 1.717,0.71c0.44,0.474 0.66,1.098 0.66,1.874c0,0.568 -0.122,1.029 -0.365,1.382c-0.244,0.353 -0.562,0.53 -0.955,0.53c-0.425,0 -0.774,-0.14 -1.049,-0.42c-0.275,-0.28 -0.412,-0.634 -0.412,-1.064c0,-0.258 0.047,-0.504 0.14,-0.736a2.05,2.05 0 0 1 0.441,-0.658c-0.106,-0.12 -0.2,-0.204 -0.281,-0.251a0.48,0.48 0 0 0 -0.244,-0.072c-0.15,0 -0.315,0.056 -0.496,0.168a2.905,2.905 0 0 0 -0.59,0.516c0.254,0.397 0.444,0.855 0.571,1.376c0.127,0.521 0.19,1.121 0.19,1.802c0,1.49 -0.422,2.695 -1.267,3.616c-0.845,0.921 -1.957,1.382 -3.335,1.382c-0.287,0 -0.579,-0.032 -0.875,-0.097a4.553,4.553 0 0 1 -0.903,-0.304a0.868,0.868 0 0 0 -0.27,0.29a0.682,0.682 0 0 0 -0.1,0.34c0,0.266 0.072,0.448 0.215,0.547c0.144,0.099 0.494,0.148 1.05,0.148c0.475,0 1.098,-0.013 1.87,-0.039a56.195,56.195 0 0 1 1.597,-0.039c1.23,0 2.124,0.272 2.68,0.815c0.557,0.543 0.835,1.41 0.835,2.599c0,1.396 -0.461,2.441 -1.382,3.135c-0.921,0.694 -2.316,1.041 -4.183,1.041c-1.849,0 -3.209,-0.237 -4.08,-0.71c-0.871,-0.474 -1.307,-1.215 -1.307,-2.223c0,-0.448 0.107,-0.85 0.32,-1.208c0.212,-0.358 0.51,-0.635 0.891,-0.833a3.607,3.607 0 0 1 -0.776,-1.131a3.341,3.341 0 0 1 -0.262,-1.325c0,-0.604 0.133,-1.14 0.397,-1.61c0.265,-0.47 0.644,-0.834 1.136,-1.092l0.001,0zm17.532,-6.812c0.324,-0.562 0.683,-0.981 1.076,-1.258a2.15,2.15 0 0 1 1.262,-0.416c0.686,0 1.234,0.278 1.646,0.834c0.411,0.556 0.617,1.299 0.617,2.229c0,0.801 -0.164,1.443 -0.492,1.926c-0.328,0.482 -0.76,0.724 -1.298,0.724c-0.425,0 -0.78,-0.185 -1.063,-0.555c-0.285,-0.37 -0.427,-0.83 -0.427,-1.38c0,-0.38 0.07,-0.711 0.208,-0.995c0.138,-0.284 0.349,-0.525 0.632,-0.722a1.561,1.561 0 0 0 -0.215,-0.058a1.08,1.08 0 0 0 -0.197,-0.02c-0.511,0 -0.915,0.33 -1.211,0.988c-0.296,0.658 -0.444,1.563 -0.444,2.716l0,3.679c0,0.507 0.059,0.841 0.177,1c0.117,0.16 0.359,0.239 0.725,0.239l0.613,0l0,2.327l-6.52,0l0,-2.327l0.327,0c0.368,0 0.61,-0.08 0.726,-0.239c0.116,-0.159 0.174,-0.493 0.174,-1l0,-5.348c0,-0.517 -0.058,-0.853 -0.174,-1.008c-0.115,-0.155 -0.358,-0.233 -0.726,-0.233l-0.328,0l0,-2.327l4.912,0l0,1.224zm12.803,5.467a17.57,17.57 0 0 1 -0.897,0.63c-0.848,0.567 -1.271,1.108 -1.271,1.624c0,0.36 0.093,0.657 0.28,0.889a0.883,0.883 0 0 0 0.72,0.347c0.36,0 0.649,-0.16 0.864,-0.483c0.215,-0.323 0.322,-0.76 0.322,-1.31l0,-0.09l-0.018,-1.607zm0.402,4.472a3.4,3.4 0 0 1 -1.348,1.31c-0.568,0.306 -1.22,0.459 -1.957,0.459c-0.954,0 -1.691,-0.306 -2.209,-0.917c-0.518,-0.612 -0.777,-1.482 -0.777,-2.61c0,-1.102 0.23,-1.93 0.693,-2.48c0.462,-0.552 1.348,-0.982 2.658,-1.292c1.092,-0.258 1.78,-0.542 2.065,-0.852c0.284,-0.31 0.425,-0.788 0.425,-1.433c0,-0.637 -0.158,-1.143 -0.476,-1.517c-0.318,-0.375 -0.752,-0.562 -1.3,-0.562c-0.181,0 -0.365,0.037 -0.552,0.11c-0.187,0.073 -0.38,0.183 -0.58,0.33c0.336,0.137 0.587,0.346 0.752,0.626c0.164,0.28 0.247,0.64 0.247,1.08c0,0.542 -0.153,0.981 -0.46,1.317c-0.305,0.336 -0.71,0.504 -1.216,0.504c-0.6,0 -1.061,-0.194 -1.386,-0.581c-0.324,-0.388 -0.486,-0.935 -0.486,-1.642c0,-1.085 0.405,-1.933 1.217,-2.545c0.812,-0.612 1.945,-0.918 3.4,-0.918c0.8,0 1.513,0.087 2.14,0.259c0.628,0.172 1.104,0.409 1.428,0.71c0.394,0.362 0.669,0.791 0.825,1.286c0.156,0.496 0.234,1.277 0.234,2.346l0,4.819c0,0.328 0.026,0.54 0.08,0.64c0.052,0.099 0.154,0.148 0.304,0.148s0.254,-0.051 0.313,-0.155c0.06,-0.103 0.09,-0.314 0.09,-0.633l0,-1.512l1.265,0l0,1.641c0,1.368 -0.225,2.349 -0.675,2.942c-0.45,0.594 -1.184,0.89 -2.202,0.89c-0.575,0 -1.067,-0.143 -1.476,-0.432c-0.41,-0.288 -0.755,-0.734 -1.036,-1.336zm-3.011,-12.909l2.765,-4.038c0.337,-0.5 0.618,-0.841 0.843,-1.026c0.225,-0.185 0.463,-0.278 0.712,-0.278c0.307,0 0.561,0.142 0.764,0.426c0.203,0.284 0.305,0.637 0.305,1.058c0,0.327 -0.08,0.62 -0.24,0.878c-0.159,0.258 -0.416,0.512 -0.773,0.761l-3.242,2.22l-1.134,0l0,-0.001zm12.333,4.152l-1.343,0l0,-2.406l1.343,0l0,-0.713c0,-1.774 0.337,-3.055 1.01,-3.844c0.674,-0.788 1.756,-1.182 3.246,-1.182c1.036,0 1.864,0.278 2.484,0.833c0.62,0.556 0.931,1.29 0.931,2.204c0,0.594 -0.154,1.082 -0.463,1.466a1.464,1.464 0 0 1 -1.193,0.575c-0.43,0 -0.783,-0.16 -1.058,-0.478c-0.275,-0.319 -0.412,-0.723 -0.412,-1.214c0,-0.319 0.058,-0.603 0.174,-0.853c0.115,-0.249 0.286,-0.469 0.511,-0.658a3.107,3.107 0 0 0 -0.285,-0.097a0.808,0.808 0 0 0 -0.211,-0.032c-0.344,0 -0.589,0.168 -0.736,0.503c-0.147,0.336 -0.22,0.935 -0.22,1.796l0,1.694l1.668,0l0,2.406l-1.668,0l0,6.47c0,0.526 0.058,0.87 0.173,1.033c0.116,0.164 0.357,0.246 0.726,0.246l0.808,0l0,2.327l-6.828,0l0,-2.327l0.46,0c0.363,0 0.601,-0.077 0.714,-0.232c0.112,-0.155 0.169,-0.491 0.169,-1.008l0,-6.509zm9.593,-5.798c0,-0.67 0.167,-1.239 0.5,-1.703c0.334,-0.465 0.741,-0.697 1.221,-0.697c0.48,0 0.889,0.235 1.226,0.703c0.337,0.47 0.505,1.035 0.505,1.697c0,0.663 -0.168,1.226 -0.505,1.69c-0.337,0.465 -0.745,0.697 -1.226,0.697c-0.486,0 -0.895,-0.228 -1.225,-0.684c-0.33,-0.456 -0.496,-1.023 -0.496,-1.703zm3.874,12.307c0,0.508 0.058,0.842 0.174,1.001c0.115,0.16 0.357,0.239 0.726,0.239l0.328,0l0,2.327l-6.291,0l0,-2.327l0.384,0c0.369,0 0.611,-0.08 0.727,-0.239c0.116,-0.16 0.174,-0.493 0.174,-1.001l0,-5.348c0,-0.517 -0.058,-0.852 -0.174,-1.007c-0.116,-0.155 -0.358,-0.233 -0.727,-0.233l-0.384,0l0,-2.327l5.063,0l0,8.915zm13.209,-0.77c-0.038,1.566 -0.415,2.764 -1.133,3.594c-0.718,0.83 -1.733,1.246 -3.044,1.246c-1.555,0 -2.792,-0.611 -3.71,-1.833c-0.917,-1.222 -1.376,-2.856 -1.376,-4.904c0,-2.074 0.465,-3.713 1.395,-4.917c0.93,-1.205 2.198,-1.807 3.803,-1.807c1.243,0 2.234,0.391 2.974,1.174c0.74,0.783 1.11,1.81 1.11,3.084c0,0.851 -0.178,1.51 -0.534,1.974c-0.357,0.464 -0.863,0.697 -1.519,0.697c-0.531,0 -0.952,-0.186 -1.261,-0.556c-0.31,-0.37 -0.464,-0.874 -0.464,-1.512c0,-0.534 0.107,-0.965 0.322,-1.292c0.215,-0.327 0.51,-0.504 0.883,-0.53c-0.1,-0.223 -0.223,-0.385 -0.369,-0.484c-0.146,-0.099 -0.335,-0.149 -0.565,-0.149c-0.61,0 -1.04,0.315 -1.293,0.944c-0.252,0.629 -0.378,1.753 -0.378,3.373c0,1.534 0.117,2.625 0.35,3.276c0.234,0.65 0.615,0.976 1.144,0.976c0.41,0 0.734,-0.207 0.971,-0.62c0.237,-0.415 0.361,-0.992 0.373,-1.734l2.321,0zm8.708,-1.454c-0.224,0.171 -0.523,0.382 -0.897,0.63c-0.847,0.567 -1.271,1.108 -1.271,1.624c0,0.36 0.094,0.657 0.28,0.889a0.883,0.883 0 0 0 0.72,0.347c0.361,0 0.65,-0.16 0.864,-0.483c0.215,-0.323 0.323,-0.76 0.323,-1.31l0,-0.09l-0.019,-1.607zm0.403,4.472a3.4,3.4 0 0 1 -1.349,1.31c-0.568,0.306 -1.22,0.459 -1.956,0.459c-0.955,0 -1.692,-0.306 -2.21,-0.917c-0.518,-0.612 -0.777,-1.482 -0.777,-2.61c0,-1.102 0.231,-1.93 0.693,-2.48c0.462,-0.552 1.348,-0.982 2.659,-1.292c1.092,-0.258 1.78,-0.542 2.064,-0.852c0.284,-0.31 0.426,-0.788 0.426,-1.433c0,-0.637 -0.159,-1.143 -0.477,-1.517c-0.318,-0.375 -0.751,-0.562 -1.3,-0.562c-0.18,0 -0.364,0.037 -0.551,0.11c-0.187,0.073 -0.381,0.183 -0.58,0.33c0.336,0.137 0.586,0.346 0.75,0.626c0.166,0.28 0.248,0.64 0.248,1.08c0,0.542 -0.153,0.981 -0.459,1.317c-0.305,0.336 -0.711,0.504 -1.216,0.504c-0.6,0 -1.062,-0.194 -1.386,-0.581c-0.325,-0.388 -0.487,-0.935 -0.487,-1.642c0,-1.085 0.406,-1.933 1.218,-2.545c0.811,-0.612 1.945,-0.918 3.4,-0.918c0.799,0 1.512,0.087 2.14,0.259c0.627,0.172 1.103,0.409 1.428,0.71c0.393,0.362 0.668,0.791 0.824,1.286c0.156,0.496 0.234,1.277 0.234,2.346l0,4.819c0,0.328 0.027,0.54 0.08,0.64c0.053,0.099 0.154,0.148 0.304,0.148s0.254,-0.051 0.314,-0.155c0.059,-0.103 0.089,-0.314 0.089,-0.633l0,-1.512l1.265,0l0,1.641c0,1.368 -0.225,2.349 -0.675,2.942c-0.45,0.594 -1.183,0.89 -2.202,0.89c-0.575,0 -1.067,-0.143 -1.476,-0.432c-0.409,-0.288 -0.754,-0.734 -1.035,-1.336z"/>
 </g>
</svg>